<svg width="22" height="18" viewBox="0 0 22 18" fill="none" xmlns="http://www.w3.org/2000/svg">
    <path
        d="M2.8337 3.90993H19.167M2.8337 3.90993V15.1099H19.167V3.90993M2.8337 3.90993V8.38993L3.70904 7.96976C4.58595 7.54884 5.63201 7.7163 6.3337 8.38993C7.01808 9.04693 8.06347 9.14954 8.86253 8.63814L9.25037 8.38993C10.3171 7.70719 11.6836 7.70719 12.7504 8.38993L13.1382 8.63814C13.9373 9.14954 14.9827 9.04693 15.667 8.38993C16.3687 7.7163 17.4148 7.54884 18.2917 7.96976L19.167 8.38993V3.90993M6.3337 3.90993C6.97803 3.90993 7.50037 3.40849 7.50037 2.78993C7.50037 2.37755 7.11148 1.63089 6.3337 0.549927C5.55592 1.63089 5.16703 2.37755 5.16703 2.78993C5.16703 3.40849 5.68937 3.90993 6.3337 3.90993ZM11.0004 3.90993C11.6447 3.90993 12.167 3.40849 12.167 2.78993C12.167 2.37755 11.7781 1.63089 11.0004 0.549927C10.2226 1.63089 9.8337 2.37755 9.8337 2.78993C9.8337 3.40849 10.356 3.90993 11.0004 3.90993ZM15.667 3.90993C16.3114 3.90993 16.8337 3.40849 16.8337 2.78993C16.8337 2.37755 16.4448 1.63089 15.667 0.549927C14.8893 1.63089 14.5004 2.37755 14.5004 2.78993C14.5004 3.40849 15.0227 3.90993 15.667 3.90993ZM2.74037 17.3499H19.2604C20.4975 17.3499 21.5004 16.347 21.5004 15.1099H0.500366C0.500366 16.347 1.50325 17.3499 2.74037 17.3499Z"
        stroke="#6E6E6E" stroke-linejoin="round" />
</svg>