<svg width="13" height="21" viewBox="0 0 13 21" fill="none" xmlns="http://www.w3.org/2000/svg">
    <path
        d="M5.55004 14.0175C6.70983 14.0175 7.65004 14.9577 7.65004 16.1175C7.65004 17.2773 6.70983 18.2175 5.55004 18.2175C4.39024 18.2175 3.45004 17.2773 3.45004 16.1175C3.45004 14.9577 4.39024 14.0175 5.55004 14.0175ZM5.55004 14.0175V6.66748M9.75004 4.56748H12.9M9.75004 6.66748H12.9M9.75004 8.76748H12.9M9.75004 10.8675H12.9M5.55004 1.41748C6.70983 1.41748 7.65004 2.35768 7.65004 3.51748L7.6512 12.48C8.90594 13.2064 9.75004 14.5634 9.75004 16.1175C9.75004 18.4371 7.86963 20.3175 5.55004 20.3175C3.23044 20.3175 1.35004 18.4371 1.35004 16.1175C1.35004 14.5629 2.1946 13.2057 3.44991 12.4794L3.45004 3.51748C3.45004 2.35768 4.39024 1.41748 5.55004 1.41748Z"
        stroke="#6E6E6E" stroke-linejoin="round" />
</svg>